# xmcd CD database file
#
# Track frame offsets:
#	150
#	2747
#	23280
#	38498
#	61578
#	62445
#	80364
#	107905
#	112798
#	126726
#	142857
#	143994
#	155901
#	177813
#	181515
#	196307
#	218241
#	219188
#	238990
#	268817
#	306426
#	309240
#	327490
#
# Disc length: 4651 seconds
#
# Revision: 0
# Processed by: cddbd v1.5.2PL0 Copyright (c) Steve Scherf et al.
# Submitted via: CDex 1.70beta2
#
DISCID=39122917
DTITLE=Enzo Jannacci - Quando un musicista ride
DYEAR=1998
DGENRE=Jazz
TTITLE0=Intro
TTITLE1=Quando un musicista ride
TTITLE2=Saxophone
TTITLE3=Son s'ciopàa
TTITLE4=I mestieri
TTITLE5=Faceva il palo
TTITLE6=Ci vuole orecchio
TTITLE7=Il ficus
TTITLE8=No tu no
TTITLE9=Secondo te che gusto c'è
TTITLE10=Chi era l'Armando
TTITLE11=L'Armando
TTITLE12=Il suonatore di contrabbasso
TTITLE13=Mexico
TTITLE14=Mexico e nuvole
TTITLE15=Due Gelati
TTITLE16=Povero Bassi!
TTITLE17=Se me lo dicevi prima
TTITLE18=Quelli che... Aspettano
TTITLE19=Quelli che... Il calcio
TTITLE20=C'è troppo eco
TTITLE21=Quando il sipario calerà
TTITLE22=Già la luna è in mezzo al mare
EXTD=YEAR: 1998
EXTT0=
EXTT1=
EXTT2=
EXTT3=
EXTT4=
EXTT5=
EXTT6=
EXTT7=
EXTT8=
EXTT9=
EXTT10=
EXTT11=
EXTT12=
EXTT13=
EXTT14=
EXTT15=
EXTT16=
EXTT17=
EXTT18=
EXTT19=
EXTT20=
EXTT21=
EXTT22=
PLAYORDER=
